<mxfile host="app.diagrams.net" modified="2023-05-04T08:20:37.896Z" agent="Mozilla/5.0 (Windows NT 10.0; Win64; x64) AppleWebKit/537.36 (KHTML, like Gecko) Chrome/112.0.0.0 Safari/537.36 Edg/112.0.1722.68" version="21.2.7" etag="CAeGex_5P2FzSYzO2MY3" type="github">
  <diagram name="Page-1" id="JF7y8rc6g2H9yDINB14n">
    <mxGraphModel>
      <root>
        <mxCell id="0" />
        <mxCell id="1" parent="0" />
      </root>
    </mxGraphModel>
  </diagram>
</mxfile>
